<mxfile host="app.diagrams.net" agent="Mozilla/5.0 (Windows NT 10.0; Win64; x64) AppleWebKit/537.36 (KHTML, like Gecko) Chrome/134.0.0.0 Safari/537.36" version="26.1.3">
  <diagram name="Page-1" id="74e2e168-ea6b-b213-b513-2b3c1d86103e">
    <mxGraphModel dx="1050" dy="557" grid="1" gridSize="10" guides="1" tooltips="1" connect="1" arrows="1" fold="1" page="1" pageScale="1" pageWidth="1100" pageHeight="850" background="none" math="0" shadow="0">
      <root>
        <mxCell id="0" />
        <mxCell id="1" parent="0" />
        <mxCell id="_jRmHoapX_54qESjvzcb-38" value="&lt;font style=&quot;font-size: 18px;&quot;&gt;归档检修计划&lt;/font&gt;" style="swimlane;html=1;childLayout=stackLayout;startSize=20;rounded=0;shadow=0;labelBackgroundColor=none;strokeWidth=1;fontFamily=Verdana;fontSize=8;align=center;" vertex="1" parent="1">
          <mxGeometry x="80" y="30" width="800" height="930" as="geometry" />
        </mxCell>
        <mxCell id="_jRmHoapX_54qESjvzcb-39" value="接收请求" style="swimlane;html=1;startSize=20;" vertex="1" parent="_jRmHoapX_54qESjvzcb-38">
          <mxGeometry y="20" width="160" height="910" as="geometry">
            <mxRectangle y="20" width="40" height="730" as="alternateBounds" />
          </mxGeometry>
        </mxCell>
        <mxCell id="_jRmHoapX_54qESjvzcb-77" style="edgeStyle=orthogonalEdgeStyle;rounded=0;orthogonalLoop=1;jettySize=auto;html=1;exitX=0.5;exitY=1;exitDx=0;exitDy=0;entryX=0.5;entryY=0;entryDx=0;entryDy=0;" edge="1" parent="_jRmHoapX_54qESjvzcb-39" source="_jRmHoapX_54qESjvzcb-41" target="_jRmHoapX_54qESjvzcb-75">
          <mxGeometry relative="1" as="geometry" />
        </mxCell>
        <mxCell id="_jRmHoapX_54qESjvzcb-41" value="&lt;font style=&quot;font-size: 12px;&quot;&gt;开始&lt;/font&gt;" style="rounded=1;whiteSpace=wrap;html=1;shadow=0;labelBackgroundColor=none;strokeWidth=1;fontFamily=Verdana;fontSize=8;align=center;" vertex="1" parent="_jRmHoapX_54qESjvzcb-39">
          <mxGeometry x="30" y="60" width="100" height="60" as="geometry" />
        </mxCell>
        <mxCell id="_jRmHoapX_54qESjvzcb-42" value="&lt;span style=&quot;font-size: 12px;&quot;&gt;获取的appId&lt;/span&gt;&lt;div&gt;&lt;span style=&quot;font-size: 12px;&quot;&gt;在指定范围&lt;/span&gt;&lt;/div&gt;" style="rhombus;whiteSpace=wrap;html=1;rounded=0;shadow=0;labelBackgroundColor=none;strokeWidth=1;fontFamily=Verdana;fontSize=8;align=center;" vertex="1" parent="_jRmHoapX_54qESjvzcb-39">
          <mxGeometry x="30" y="260" width="100" height="75" as="geometry" />
        </mxCell>
        <mxCell id="_jRmHoapX_54qESjvzcb-78" style="edgeStyle=orthogonalEdgeStyle;rounded=0;orthogonalLoop=1;jettySize=auto;html=1;exitX=0.5;exitY=1;exitDx=0;exitDy=0;entryX=0.5;entryY=0;entryDx=0;entryDy=0;" edge="1" parent="_jRmHoapX_54qESjvzcb-39" source="_jRmHoapX_54qESjvzcb-75" target="_jRmHoapX_54qESjvzcb-42">
          <mxGeometry relative="1" as="geometry" />
        </mxCell>
        <mxCell id="_jRmHoapX_54qESjvzcb-75" value="&lt;span style=&quot;font-size: 12px;&quot;&gt;获取appId&lt;/span&gt;" style="whiteSpace=wrap;html=1;fontSize=8;fontFamily=Verdana;rounded=0;shadow=0;labelBackgroundColor=none;strokeWidth=1;" vertex="1" parent="_jRmHoapX_54qESjvzcb-39">
          <mxGeometry x="30" y="160" width="100" height="60" as="geometry" />
        </mxCell>
        <mxCell id="_jRmHoapX_54qESjvzcb-79" value="&lt;span style=&quot;font-size: 12px;&quot;&gt;失败返回&lt;/span&gt;" style="whiteSpace=wrap;html=1;fontSize=8;fontFamily=Verdana;rounded=0;shadow=0;labelBackgroundColor=none;strokeWidth=1;" vertex="1" parent="_jRmHoapX_54qESjvzcb-39">
          <mxGeometry x="30" y="840" width="100" height="60" as="geometry" />
        </mxCell>
        <mxCell id="_jRmHoapX_54qESjvzcb-46" value="参数校验" style="swimlane;html=1;startSize=20;" vertex="1" parent="_jRmHoapX_54qESjvzcb-38">
          <mxGeometry x="160" y="20" width="160" height="910" as="geometry" />
        </mxCell>
        <mxCell id="_jRmHoapX_54qESjvzcb-86" style="edgeStyle=orthogonalEdgeStyle;rounded=0;orthogonalLoop=1;jettySize=auto;html=1;exitX=0.5;exitY=1;exitDx=0;exitDy=0;" edge="1" parent="_jRmHoapX_54qESjvzcb-46" source="_jRmHoapX_54qESjvzcb-80" target="_jRmHoapX_54qESjvzcb-85">
          <mxGeometry relative="1" as="geometry" />
        </mxCell>
        <mxCell id="_jRmHoapX_54qESjvzcb-87" value="查到" style="edgeLabel;html=1;align=center;verticalAlign=middle;resizable=0;points=[];" vertex="1" connectable="0" parent="_jRmHoapX_54qESjvzcb-86">
          <mxGeometry x="-0.3412" y="-3" relative="1" as="geometry">
            <mxPoint x="3" as="offset" />
          </mxGeometry>
        </mxCell>
        <mxCell id="_jRmHoapX_54qESjvzcb-80" value="&lt;span style=&quot;font-size: 12px;&quot;&gt;查询检修计划&lt;/span&gt;" style="rhombus;whiteSpace=wrap;html=1;rounded=0;shadow=0;labelBackgroundColor=none;strokeWidth=1;fontFamily=Verdana;fontSize=8;align=center;" vertex="1" parent="_jRmHoapX_54qESjvzcb-46">
          <mxGeometry x="30" y="260" width="100" height="75" as="geometry" />
        </mxCell>
        <mxCell id="_jRmHoapX_54qESjvzcb-90" style="edgeStyle=orthogonalEdgeStyle;rounded=0;orthogonalLoop=1;jettySize=auto;html=1;exitX=0.5;exitY=1;exitDx=0;exitDy=0;" edge="1" parent="_jRmHoapX_54qESjvzcb-46" source="_jRmHoapX_54qESjvzcb-85" target="_jRmHoapX_54qESjvzcb-89">
          <mxGeometry relative="1" as="geometry" />
        </mxCell>
        <mxCell id="_jRmHoapX_54qESjvzcb-91" value="查到" style="edgeLabel;html=1;align=center;verticalAlign=middle;resizable=0;points=[];" vertex="1" connectable="0" parent="_jRmHoapX_54qESjvzcb-90">
          <mxGeometry x="-0.2988" y="-2" relative="1" as="geometry">
            <mxPoint as="offset" />
          </mxGeometry>
        </mxCell>
        <mxCell id="_jRmHoapX_54qESjvzcb-93" style="edgeStyle=orthogonalEdgeStyle;rounded=0;orthogonalLoop=1;jettySize=auto;html=1;exitX=0;exitY=0.5;exitDx=0;exitDy=0;" edge="1" parent="_jRmHoapX_54qESjvzcb-46" source="_jRmHoapX_54qESjvzcb-85">
          <mxGeometry relative="1" as="geometry">
            <mxPoint x="10" y="410.20000000000005" as="targetPoint" />
          </mxGeometry>
        </mxCell>
        <mxCell id="_jRmHoapX_54qESjvzcb-85" value="&lt;span style=&quot;font-size: 12px;&quot;&gt;查询操作人&lt;/span&gt;" style="rhombus;whiteSpace=wrap;html=1;rounded=0;shadow=0;labelBackgroundColor=none;strokeWidth=1;fontFamily=Verdana;fontSize=8;align=center;" vertex="1" parent="_jRmHoapX_54qESjvzcb-46">
          <mxGeometry x="30" y="372.5" width="100" height="75" as="geometry" />
        </mxCell>
        <mxCell id="_jRmHoapX_54qESjvzcb-94" style="edgeStyle=orthogonalEdgeStyle;rounded=0;orthogonalLoop=1;jettySize=auto;html=1;exitX=0;exitY=0.5;exitDx=0;exitDy=0;" edge="1" parent="_jRmHoapX_54qESjvzcb-46" source="_jRmHoapX_54qESjvzcb-89">
          <mxGeometry relative="1" as="geometry">
            <mxPoint x="10" y="527.4" as="targetPoint" />
          </mxGeometry>
        </mxCell>
        <mxCell id="_jRmHoapX_54qESjvzcb-96" value="&lt;font style=&quot;font-size: 10px;&quot;&gt;否&lt;/font&gt;" style="edgeLabel;html=1;align=center;verticalAlign=middle;resizable=0;points=[];" vertex="1" connectable="0" parent="_jRmHoapX_54qESjvzcb-94">
          <mxGeometry x="-0.3344" y="1" relative="1" as="geometry">
            <mxPoint y="11" as="offset" />
          </mxGeometry>
        </mxCell>
        <mxCell id="_jRmHoapX_54qESjvzcb-89" value="&lt;span style=&quot;font-size: 12px;&quot;&gt;判断获取的appId&lt;/span&gt;&lt;div&gt;&lt;span style=&quot;font-size: 12px;&quot;&gt;和检修计划记录的&lt;/span&gt;&lt;/div&gt;&lt;div&gt;&lt;span style=&quot;font-size: 12px;&quot;&gt;是否一致&lt;/span&gt;&lt;/div&gt;" style="rhombus;whiteSpace=wrap;html=1;rounded=0;shadow=0;labelBackgroundColor=none;strokeWidth=1;fontFamily=Verdana;fontSize=8;align=center;" vertex="1" parent="_jRmHoapX_54qESjvzcb-46">
          <mxGeometry x="30" y="490" width="100" height="75" as="geometry" />
        </mxCell>
        <mxCell id="_jRmHoapX_54qESjvzcb-95" value="&lt;font style=&quot;font-size: 10px;&quot;&gt;未查到&lt;/font&gt;" style="edgeLabel;html=1;align=center;verticalAlign=middle;resizable=0;points=[];" vertex="1" connectable="0" parent="_jRmHoapX_54qESjvzcb-46">
          <mxGeometry x="30" y="419.99999000000247" as="geometry">
            <mxPoint x="-3" y="10" as="offset" />
          </mxGeometry>
        </mxCell>
        <mxCell id="_jRmHoapX_54qESjvzcb-50" value="工作状态更新" style="swimlane;html=1;startSize=20;" vertex="1" parent="_jRmHoapX_54qESjvzcb-38">
          <mxGeometry x="320" y="20" width="160" height="910" as="geometry" />
        </mxCell>
        <mxCell id="_jRmHoapX_54qESjvzcb-101" style="edgeStyle=orthogonalEdgeStyle;rounded=0;orthogonalLoop=1;jettySize=auto;html=1;exitX=0.5;exitY=1;exitDx=0;exitDy=0;entryX=0.5;entryY=0;entryDx=0;entryDy=0;" edge="1" parent="_jRmHoapX_54qESjvzcb-50" source="_jRmHoapX_54qESjvzcb-53" target="_jRmHoapX_54qESjvzcb-100">
          <mxGeometry relative="1" as="geometry" />
        </mxCell>
        <mxCell id="_jRmHoapX_54qESjvzcb-53" value="&lt;span style=&quot;font-size: 12px;&quot;&gt;更新&lt;/span&gt;&lt;div&gt;&lt;span style=&quot;font-size: 12px;&quot;&gt;工作任务状态为已完成&lt;/span&gt;&lt;/div&gt;" style="whiteSpace=wrap;html=1;fontSize=8;fontFamily=Verdana;rounded=0;shadow=0;labelBackgroundColor=none;strokeWidth=1;" vertex="1" parent="_jRmHoapX_54qESjvzcb-50">
          <mxGeometry x="30" y="267.5" width="100" height="60" as="geometry" />
        </mxCell>
        <mxCell id="_jRmHoapX_54qESjvzcb-103" style="edgeStyle=orthogonalEdgeStyle;rounded=0;orthogonalLoop=1;jettySize=auto;html=1;exitX=0.5;exitY=1;exitDx=0;exitDy=0;entryX=0.5;entryY=0;entryDx=0;entryDy=0;" edge="1" parent="_jRmHoapX_54qESjvzcb-50" source="_jRmHoapX_54qESjvzcb-100" target="_jRmHoapX_54qESjvzcb-102">
          <mxGeometry relative="1" as="geometry" />
        </mxCell>
        <mxCell id="_jRmHoapX_54qESjvzcb-100" value="&lt;span style=&quot;font-size: 12px;&quot;&gt;更新&lt;/span&gt;&lt;div&gt;&lt;span style=&quot;font-size: 12px;&quot;&gt;修试记录状态为已完成&lt;/span&gt;&lt;/div&gt;" style="whiteSpace=wrap;html=1;fontSize=8;fontFamily=Verdana;rounded=0;shadow=0;labelBackgroundColor=none;strokeWidth=1;" vertex="1" parent="_jRmHoapX_54qESjvzcb-50">
          <mxGeometry x="30" y="370" width="100" height="60" as="geometry" />
        </mxCell>
        <mxCell id="_jRmHoapX_54qESjvzcb-105" style="edgeStyle=orthogonalEdgeStyle;rounded=0;orthogonalLoop=1;jettySize=auto;html=1;exitX=0.5;exitY=1;exitDx=0;exitDy=0;entryX=0.5;entryY=0;entryDx=0;entryDy=0;" edge="1" parent="_jRmHoapX_54qESjvzcb-50" source="_jRmHoapX_54qESjvzcb-102" target="_jRmHoapX_54qESjvzcb-104">
          <mxGeometry relative="1" as="geometry" />
        </mxCell>
        <mxCell id="_jRmHoapX_54qESjvzcb-102" value="&lt;span style=&quot;font-size: 12px;&quot;&gt;更新&lt;/span&gt;&lt;div&gt;&lt;span style=&quot;font-size: 12px;&quot;&gt;工作记录状态为已完成&lt;/span&gt;&lt;/div&gt;" style="whiteSpace=wrap;html=1;fontSize=8;fontFamily=Verdana;rounded=0;shadow=0;labelBackgroundColor=none;strokeWidth=1;" vertex="1" parent="_jRmHoapX_54qESjvzcb-50">
          <mxGeometry x="30" y="470" width="100" height="60" as="geometry" />
        </mxCell>
        <mxCell id="_jRmHoapX_54qESjvzcb-104" value="&lt;div&gt;&lt;span style=&quot;font-size: 12px; background-color: transparent; color: light-dark(rgb(0, 0, 0), rgb(255, 255, 255));&quot;&gt;变电作业计划&lt;/span&gt;&lt;/div&gt;&lt;div&gt;&lt;span style=&quot;font-size: 12px; background-color: transparent; color: light-dark(rgb(0, 0, 0), rgb(255, 255, 255));&quot;&gt;发mq&lt;/span&gt;&lt;/div&gt;&lt;div&gt;&lt;span style=&quot;font-size: 12px; background-color: transparent; color: light-dark(rgb(0, 0, 0), rgb(255, 255, 255));&quot;&gt;通知远程督查任务&lt;/span&gt;&lt;/div&gt;&lt;div&gt;&lt;br&gt;&lt;/div&gt;" style="whiteSpace=wrap;html=1;fontSize=8;fontFamily=Verdana;rounded=0;shadow=0;labelBackgroundColor=none;strokeWidth=1;" vertex="1" parent="_jRmHoapX_54qESjvzcb-50">
          <mxGeometry x="30" y="570" width="100" height="60" as="geometry" />
        </mxCell>
        <mxCell id="_jRmHoapX_54qESjvzcb-54" value="完成检修计划" style="swimlane;html=1;startSize=20;" vertex="1" parent="_jRmHoapX_54qESjvzcb-38">
          <mxGeometry x="480" y="20" width="160" height="910" as="geometry" />
        </mxCell>
        <mxCell id="_jRmHoapX_54qESjvzcb-108" style="edgeStyle=orthogonalEdgeStyle;rounded=0;orthogonalLoop=1;jettySize=auto;html=1;exitX=0.5;exitY=1;exitDx=0;exitDy=0;" edge="1" parent="_jRmHoapX_54qESjvzcb-54" source="_jRmHoapX_54qESjvzcb-56" target="_jRmHoapX_54qESjvzcb-107">
          <mxGeometry relative="1" as="geometry" />
        </mxCell>
        <mxCell id="_jRmHoapX_54qESjvzcb-56" value="&lt;span style=&quot;font-size: 12px;&quot;&gt;更新&lt;/span&gt;&lt;div&gt;&lt;span style=&quot;font-size: 12px;&quot;&gt;检修计划记录状态为已完成&lt;/span&gt;&lt;/div&gt;" style="whiteSpace=wrap;html=1;fontSize=8;fontFamily=Verdana;rounded=0;shadow=0;labelBackgroundColor=none;strokeWidth=1;" vertex="1" parent="_jRmHoapX_54qESjvzcb-54">
          <mxGeometry x="30" y="267.5" width="100" height="60" as="geometry" />
        </mxCell>
        <mxCell id="_jRmHoapX_54qESjvzcb-114" style="edgeStyle=orthogonalEdgeStyle;rounded=0;orthogonalLoop=1;jettySize=auto;html=1;exitX=0.5;exitY=1;exitDx=0;exitDy=0;" edge="1" parent="_jRmHoapX_54qESjvzcb-54" source="_jRmHoapX_54qESjvzcb-107" target="_jRmHoapX_54qESjvzcb-113">
          <mxGeometry relative="1" as="geometry" />
        </mxCell>
        <mxCell id="_jRmHoapX_54qESjvzcb-107" value="&lt;span style=&quot;font-size: 12px;&quot;&gt;停电计划发送消息到mq&lt;/span&gt;" style="whiteSpace=wrap;html=1;fontSize=8;fontFamily=Verdana;rounded=0;shadow=0;labelBackgroundColor=none;strokeWidth=1;" vertex="1" parent="_jRmHoapX_54qESjvzcb-54">
          <mxGeometry x="30" y="370" width="100" height="60" as="geometry" />
        </mxCell>
        <mxCell id="_jRmHoapX_54qESjvzcb-116" style="edgeStyle=orthogonalEdgeStyle;rounded=0;orthogonalLoop=1;jettySize=auto;html=1;exitX=0.5;exitY=1;exitDx=0;exitDy=0;entryX=0.5;entryY=0;entryDx=0;entryDy=0;" edge="1" parent="_jRmHoapX_54qESjvzcb-54" source="_jRmHoapX_54qESjvzcb-113" target="_jRmHoapX_54qESjvzcb-115">
          <mxGeometry relative="1" as="geometry" />
        </mxCell>
        <mxCell id="_jRmHoapX_54qESjvzcb-113" value="&lt;span style=&quot;font-size: 12px;&quot;&gt;同步更新周计划对应的年月计划&lt;/span&gt;" style="whiteSpace=wrap;html=1;fontSize=8;fontFamily=Verdana;rounded=0;shadow=0;labelBackgroundColor=none;strokeWidth=1;" vertex="1" parent="_jRmHoapX_54qESjvzcb-54">
          <mxGeometry x="30" y="470" width="100" height="60" as="geometry" />
        </mxCell>
        <mxCell id="_jRmHoapX_54qESjvzcb-115" value="&lt;span style=&quot;font-size: 12px;&quot;&gt;给成本平台服务发送mq消息&lt;/span&gt;" style="whiteSpace=wrap;html=1;fontSize=8;fontFamily=Verdana;rounded=0;shadow=0;labelBackgroundColor=none;strokeWidth=1;" vertex="1" parent="_jRmHoapX_54qESjvzcb-54">
          <mxGeometry x="30" y="570" width="100" height="60" as="geometry" />
        </mxCell>
        <mxCell id="_jRmHoapX_54qESjvzcb-60" value="" style="edgeStyle=orthogonalEdgeStyle;rounded=0;orthogonalLoop=1;jettySize=auto;html=1;entryX=0.5;entryY=0;entryDx=0;entryDy=0;" edge="1" parent="_jRmHoapX_54qESjvzcb-38" source="_jRmHoapX_54qESjvzcb-42" target="_jRmHoapX_54qESjvzcb-80">
          <mxGeometry relative="1" as="geometry">
            <mxPoint x="190" y="217.5" as="targetPoint" />
            <Array as="points">
              <mxPoint x="150" y="318" />
              <mxPoint x="150" y="240" />
              <mxPoint x="240" y="240" />
            </Array>
          </mxGeometry>
        </mxCell>
        <mxCell id="_jRmHoapX_54qESjvzcb-61" value="是" style="edgeLabel;html=1;align=center;verticalAlign=middle;resizable=0;points=[];" vertex="1" connectable="0" parent="_jRmHoapX_54qESjvzcb-60">
          <mxGeometry x="-0.5771" relative="1" as="geometry">
            <mxPoint as="offset" />
          </mxGeometry>
        </mxCell>
        <mxCell id="_jRmHoapX_54qESjvzcb-81" style="edgeStyle=orthogonalEdgeStyle;rounded=0;orthogonalLoop=1;jettySize=auto;html=1;exitX=0;exitY=0.5;exitDx=0;exitDy=0;" edge="1" parent="_jRmHoapX_54qESjvzcb-38" source="_jRmHoapX_54qESjvzcb-80" target="_jRmHoapX_54qESjvzcb-79">
          <mxGeometry relative="1" as="geometry">
            <mxPoint x="180" y="480" as="sourcePoint" />
            <Array as="points">
              <mxPoint x="170" y="318" />
              <mxPoint x="170" y="820" />
              <mxPoint x="80" y="820" />
            </Array>
          </mxGeometry>
        </mxCell>
        <mxCell id="_jRmHoapX_54qESjvzcb-92" value="&lt;font style=&quot;font-size: 10px;&quot;&gt;未查到&lt;/font&gt;" style="edgeLabel;html=1;align=center;verticalAlign=middle;resizable=0;points=[];" vertex="1" connectable="0" parent="_jRmHoapX_54qESjvzcb-81">
          <mxGeometry x="-0.8979" relative="1" as="geometry">
            <mxPoint x="10" y="4" as="offset" />
          </mxGeometry>
        </mxCell>
        <mxCell id="_jRmHoapX_54qESjvzcb-98" style="edgeStyle=orthogonalEdgeStyle;rounded=0;orthogonalLoop=1;jettySize=auto;html=1;exitX=0.5;exitY=1;exitDx=0;exitDy=0;entryX=0.5;entryY=0;entryDx=0;entryDy=0;" edge="1" parent="_jRmHoapX_54qESjvzcb-38" source="_jRmHoapX_54qESjvzcb-89" target="_jRmHoapX_54qESjvzcb-53">
          <mxGeometry relative="1" as="geometry">
            <Array as="points">
              <mxPoint x="240" y="630" />
              <mxPoint x="310" y="630" />
              <mxPoint x="310" y="240" />
              <mxPoint x="400" y="240" />
            </Array>
          </mxGeometry>
        </mxCell>
        <mxCell id="_jRmHoapX_54qESjvzcb-99" value="是" style="edgeLabel;html=1;align=center;verticalAlign=middle;resizable=0;points=[];" vertex="1" connectable="0" parent="_jRmHoapX_54qESjvzcb-98">
          <mxGeometry x="-0.9645" y="-1" relative="1" as="geometry">
            <mxPoint as="offset" />
          </mxGeometry>
        </mxCell>
        <mxCell id="_jRmHoapX_54qESjvzcb-106" style="edgeStyle=orthogonalEdgeStyle;rounded=0;orthogonalLoop=1;jettySize=auto;html=1;exitX=0.5;exitY=1;exitDx=0;exitDy=0;entryX=0.5;entryY=0;entryDx=0;entryDy=0;" edge="1" parent="_jRmHoapX_54qESjvzcb-38" source="_jRmHoapX_54qESjvzcb-104" target="_jRmHoapX_54qESjvzcb-56">
          <mxGeometry relative="1" as="geometry">
            <Array as="points">
              <mxPoint x="400" y="690" />
              <mxPoint x="470" y="690" />
              <mxPoint x="470" y="240" />
              <mxPoint x="560" y="240" />
            </Array>
          </mxGeometry>
        </mxCell>
        <mxCell id="_jRmHoapX_54qESjvzcb-65" value="终止流程" style="swimlane;html=1;startSize=20;" vertex="1" parent="1">
          <mxGeometry x="720" y="50" width="160" height="910" as="geometry" />
        </mxCell>
        <mxCell id="_jRmHoapX_54qESjvzcb-66" value="&lt;span style=&quot;font-size: 12px;&quot;&gt;成功返回&lt;/span&gt;" style="whiteSpace=wrap;html=1;fontSize=8;fontFamily=Verdana;rounded=0;shadow=0;labelBackgroundColor=none;strokeWidth=1;" vertex="1" parent="_jRmHoapX_54qESjvzcb-65">
          <mxGeometry x="30" y="840" width="100" height="60" as="geometry" />
        </mxCell>
        <mxCell id="_jRmHoapX_54qESjvzcb-67" style="edgeStyle=orthogonalEdgeStyle;rounded=0;orthogonalLoop=1;jettySize=auto;html=1;entryX=0.5;entryY=0;entryDx=0;entryDy=0;exitX=0.5;exitY=1;exitDx=0;exitDy=0;" edge="1" parent="_jRmHoapX_54qESjvzcb-65" source="_jRmHoapX_54qESjvzcb-119" target="_jRmHoapX_54qESjvzcb-66">
          <mxGeometry relative="1" as="geometry">
            <mxPoint x="80" y="330" as="sourcePoint" />
          </mxGeometry>
        </mxCell>
        <mxCell id="_jRmHoapX_54qESjvzcb-120" style="edgeStyle=orthogonalEdgeStyle;rounded=0;orthogonalLoop=1;jettySize=auto;html=1;exitX=0.5;exitY=1;exitDx=0;exitDy=0;" edge="1" parent="_jRmHoapX_54qESjvzcb-65" source="_jRmHoapX_54qESjvzcb-117" target="_jRmHoapX_54qESjvzcb-119">
          <mxGeometry relative="1" as="geometry" />
        </mxCell>
        <mxCell id="_jRmHoapX_54qESjvzcb-117" value="&lt;div&gt;&lt;span style=&quot;font-size: 12px; background-color: transparent; color: light-dark(rgb(0, 0, 0), rgb(255, 255, 255));&quot;&gt;终止存在的流程&lt;/span&gt;&lt;/div&gt;" style="whiteSpace=wrap;html=1;fontSize=8;fontFamily=Verdana;rounded=0;shadow=0;labelBackgroundColor=none;strokeWidth=1;" vertex="1" parent="_jRmHoapX_54qESjvzcb-65">
          <mxGeometry x="30" y="270" width="100" height="60" as="geometry" />
        </mxCell>
        <mxCell id="_jRmHoapX_54qESjvzcb-119" value="&lt;span style=&quot;font-size: 12px;&quot;&gt;工单状态改为已完成&lt;/span&gt;" style="whiteSpace=wrap;html=1;fontSize=8;fontFamily=Verdana;rounded=0;shadow=0;labelBackgroundColor=none;strokeWidth=1;" vertex="1" parent="_jRmHoapX_54qESjvzcb-65">
          <mxGeometry x="30" y="370" width="100" height="60" as="geometry" />
        </mxCell>
        <mxCell id="_jRmHoapX_54qESjvzcb-43" style="edgeStyle=orthogonalEdgeStyle;rounded=0;orthogonalLoop=1;jettySize=auto;html=1;exitX=0.5;exitY=1;exitDx=0;exitDy=0;entryX=0.5;entryY=0;entryDx=0;entryDy=0;" edge="1" parent="1" source="_jRmHoapX_54qESjvzcb-42" target="_jRmHoapX_54qESjvzcb-66">
          <mxGeometry relative="1" as="geometry">
            <mxPoint x="800" y="1005" as="targetPoint" />
            <mxPoint x="160" y="500" as="sourcePoint" />
            <Array as="points">
              <mxPoint x="160" y="800" />
              <mxPoint x="800" y="800" />
            </Array>
          </mxGeometry>
        </mxCell>
        <mxCell id="_jRmHoapX_54qESjvzcb-83" value="否" style="edgeLabel;html=1;align=center;verticalAlign=middle;resizable=0;points=[];" vertex="1" connectable="0" parent="_jRmHoapX_54qESjvzcb-43">
          <mxGeometry x="-0.965" relative="1" as="geometry">
            <mxPoint as="offset" />
          </mxGeometry>
        </mxCell>
        <mxCell id="_jRmHoapX_54qESjvzcb-118" style="edgeStyle=orthogonalEdgeStyle;rounded=0;orthogonalLoop=1;jettySize=auto;html=1;exitX=0.5;exitY=1;exitDx=0;exitDy=0;entryX=0.5;entryY=0;entryDx=0;entryDy=0;" edge="1" parent="1" source="_jRmHoapX_54qESjvzcb-115" target="_jRmHoapX_54qESjvzcb-117">
          <mxGeometry relative="1" as="geometry">
            <Array as="points">
              <mxPoint x="640" y="720" />
              <mxPoint x="710" y="720" />
              <mxPoint x="710" y="270" />
              <mxPoint x="800" y="270" />
            </Array>
          </mxGeometry>
        </mxCell>
      </root>
    </mxGraphModel>
  </diagram>
</mxfile>
